<svg width="66" height="66" viewBox="0 0 66 66" fill="none" xmlns="http://www.w3.org/2000/svg">
<g filter="url(#filter0_d_1_539)">
<rect x="10" y="6" width="50" height="50" rx="12" fill="white"/>
<rect x="10" y="6" width="50" height="50" rx="12" fill="url(#paint0_linear_1_539)"/>
<rect x="10.75" y="6.75" width="48.5" height="48.5" rx="11.25" stroke="#A414D5" stroke-width="1.5"/>
</g>
<path d="M35.3701 27.88H40.6201" stroke="#16192C" stroke-width="1.5" stroke-linecap="round" stroke-linejoin="round"/>
<path d="M29.3799 27.88L30.1299 28.63L32.3799 26.38" stroke="#16192C" stroke-width="1.5" stroke-linecap="round" stroke-linejoin="round"/>
<path d="M35.3701 34.88H40.6201" stroke="#16192C" stroke-width="1.5" stroke-linecap="round" stroke-linejoin="round"/>
<path d="M29.3799 34.88L30.1299 35.63L32.3799 33.38" stroke="#16192C" stroke-width="1.5" stroke-linecap="round" stroke-linejoin="round"/>
<path d="M32 41H38C43 41 45 39 45 34V28C45 23 43 21 38 21H32C27 21 25 23 25 28V34C25 39 27 41 32 41Z" stroke="#16192C" stroke-width="1.5" stroke-linecap="round" stroke-linejoin="round"/>
<defs>
<filter id="filter0_d_1_539" x="0" y="0" width="66" height="66" filterUnits="userSpaceOnUse" color-interpolation-filters="sRGB">
<feFlood flood-opacity="0" result="BackgroundImageFix"/>
<feColorMatrix in="SourceAlpha" type="matrix" values="0 0 0 0 0 0 0 0 0 0 0 0 0 0 0 0 0 0 127 0" result="hardAlpha"/>
<feOffset dx="-2" dy="2"/>
<feGaussianBlur stdDeviation="4"/>
<feComposite in2="hardAlpha" operator="out"/>
<feColorMatrix type="matrix" values="0 0 0 0 0.461667 0 0 0 0 0.461667 0 0 0 0 0.461667 0 0 0 0.2 0"/>
<feBlend mode="normal" in2="BackgroundImageFix" result="effect1_dropShadow_1_539"/>
<feBlend mode="normal" in="SourceGraphic" in2="effect1_dropShadow_1_539" result="shape"/>
</filter>
<linearGradient id="paint0_linear_1_539" x1="35" y1="6" x2="35" y2="56" gradientUnits="userSpaceOnUse">
<stop stop-color="#E9E9E9"/>
<stop offset="0.0001" stop-color="#E9E9E9"/>
<stop offset="1" stop-color="white"/>
</linearGradient>
</defs>
</svg>
