<svg width="24" height="25" viewBox="0 0 24 25" fill="none" xmlns="http://www.w3.org/2000/svg">
<path d="M22 7H16" stroke="#A414D5" stroke-width="1.5" stroke-miterlimit="10" stroke-linecap="round" stroke-linejoin="round"/>
<path d="M6 7H2" stroke="#A414D5" stroke-width="1.5" stroke-miterlimit="10" stroke-linecap="round" stroke-linejoin="round"/>
<path d="M10 10.5C11.933 10.5 13.5 8.933 13.5 7C13.5 5.067 11.933 3.5 10 3.5C8.067 3.5 6.5 5.067 6.5 7C6.5 8.933 8.067 10.5 10 10.5Z" stroke="#A414D5" stroke-width="1.5" stroke-miterlimit="10" stroke-linecap="round" stroke-linejoin="round"/>
<path d="M22 18H18" stroke="#A414D5" stroke-width="1.5" stroke-miterlimit="10" stroke-linecap="round" stroke-linejoin="round"/>
<path d="M8 18H2" stroke="#A414D5" stroke-width="1.5" stroke-miterlimit="10" stroke-linecap="round" stroke-linejoin="round"/>
<path d="M14 21.5C15.933 21.5 17.5 19.933 17.5 18C17.5 16.067 15.933 14.5 14 14.5C12.067 14.5 10.5 16.067 10.5 18C10.5 19.933 12.067 21.5 14 21.5Z" stroke="#A414D5" stroke-width="1.5" stroke-miterlimit="10" stroke-linecap="round" stroke-linejoin="round"/>
</svg>
